<svg xmlns="http://www.w3.org/2000/svg" width="35.004" height="35.003" viewBox="0 0 35.004 35.003">
  <g id="Group_194" data-name="Group 194" transform="translate(-398 -973)">
    <g id="Group_176" data-name="Group 176" transform="translate(-153.744 4.003)">
      <path id="Path_5345" data-name="Path 5345" d="M0-17.5a17.5,17.5,0,0,1,9.461,2.778l-2.7,4.206A12.5,12.5,0,0,0,0-12.5Z" transform="translate(569.246 986.497)" fill="#e0deff"/>
      <path id="Path_5346" data-name="Path 5346" d="M9.461-14.722A17.5,17.5,0,0,1,15.919,7.27,17.5,17.5,0,0,1-4.93,16.791,17.5,17.5,0,0,1-17.322-2.491,17.5,17.5,0,0,1,0-17.5v5A12.5,12.5,0,0,0-12.373-1.779,12.5,12.5,0,0,0-3.522,11.994a12.5,12.5,0,0,0,14.892-6.8A12.5,12.5,0,0,0,6.758-10.516Z" transform="translate(569.246 986.497)" fill="#e0deff"/>
    </g>
    <text id="_0_" data-name="0%" transform="translate(415 994)" fill="#4f46fb" font-size="8" font-family="SegoeUI-SemiBold, Segoe UI" font-weight="600"><tspan x="-5" y="0">0%</tspan></text>
  </g>
</svg>
