<svg xmlns="http://www.w3.org/2000/svg" width="35" height="34.996" viewBox="0 0 35 34.996">
  <g id="Group_198" data-name="Group 198" transform="translate(-518.998 -973.002)">
    <g id="Group_199" data-name="Group 199">
      <path id="Path_5353" data-name="Path 5353" d="M0-17.5A17.5,17.5,0,0,1,17.775-.282,17.5,17.5,0,0,1,.555,17.493l-.159-5A12.5,12.5,0,0,0,12.7-.2,12.5,12.5,0,0,0,0-12.5Z" transform="translate(536.221 990.504)" fill="#4f46fb"/>
      <path id="Path_5354" data-name="Path 5354" d="M.555,17.491A17.5,17.5,0,0,1-17.22.273,17.5,17.5,0,0,1,0-17.5v5A12.5,12.5,0,0,0-12.3.2,12.5,12.5,0,0,0,.4,12.5Z" transform="translate(536.221 990.504)" fill="#e0deff"/>
    </g>
    <text id="_50_" data-name="50%" transform="translate(537.221 993.282)" fill="#4f46fb" font-size="8" font-family="SegoeUI-SemiBold, Segoe UI" font-weight="600"><tspan x="-7" y="0">50%</tspan></text>
  </g>
</svg>
