<svg xmlns="http://www.w3.org/2000/svg" width="164" height="164" viewBox="0 0 164 164">
  <g id="Group_1058" data-name="Group 1058" transform="translate(-197.415 -66.478)">
    <path id="Path_750" data-name="Path 750" d="M262.076,59.75a71.661,71.661,0,1,0,71.661,71.661A71.66,71.66,0,0,0,262.076,59.75Zm0,130.845a59.184,59.184,0,1,1,59.184-59.184A59.184,59.184,0,0,1,262.076,190.595Z" transform="translate(17.066 17.066)" fill="#ececec"/>
    <circle id="Ellipse_68" data-name="Ellipse 68" cx="82" cy="82" r="82" transform="translate(197.415 66.478)" fill="#ececec"/>
    <circle id="Ellipse_69" data-name="Ellipse 69" cx="54" cy="54" r="54" transform="translate(225.415 94.478)" fill="#d0cece"/>
    <path id="Path_751" data-name="Path 751" d="M279.142,229.932a81.637,81.637,0,0,1-81.429-79.852h27.408a54.05,54.05,0,1,0,55.188-55.645v-27.4a81.455,81.455,0,0,1-1.167,162.9Z" fill="#988efc"/>
    <circle id="Ellipse_70" data-name="Ellipse 70" cx="43" cy="43" r="43" transform="translate(236.415 105.478)" fill="#fff"/>
    <text id="_75_" data-name="75%" transform="translate(279.415 155.478)" fill="#707070" font-size="20" font-family="Rubik-Regular, Rubik"><tspan x="-18.68" y="0">75%</tspan></text>
  </g>
</svg>
