<svg xmlns="http://www.w3.org/2000/svg" width="15.001" height="14.452" viewBox="0 0 15.001 14.452">
  <g id="Group_11" data-name="Group 11" transform="translate(0)">
    <path id="Path_19" data-name="Path 19" d="M-475.5,22.431a1.93,1.93,0,0,1,1.755,1.1c.335.655.672,1.31.971,1.981a1.043,1.043,0,0,0,.939.662c.76.084,1.52.189,2.271.333a1.83,1.83,0,0,1,1.471,1.337,1.862,1.862,0,0,1-.487,1.954c-.55.561-1.119,1.1-1.688,1.646a.841.841,0,0,0-.282.826c.142.756.259,1.517.4,2.274a1.964,1.964,0,0,1-1.944,2.341,1.986,1.986,0,0,1-.91-.24c-.672-.355-1.351-.7-2.016-1.064a.9.9,0,0,0-.95,0q-1.03.568-2.083,1.1a1.946,1.946,0,0,1-2.613-.864,2.124,2.124,0,0,1-.155-1.4c.139-.757.268-1.516.392-2.276a.71.71,0,0,0-.249-.642c-.572-.554-1.145-1.106-1.711-1.665a1.941,1.941,0,0,1-.2-2.608,1.994,1.994,0,0,1,1.384-.762c.768-.1,1.534-.217,2.3-.33a.751.751,0,0,0,.589-.451c.35-.718.7-1.438,1.061-2.149A1.929,1.929,0,0,1-475.5,22.431Zm-.01,11.757a1.967,1.967,0,0,1,.992.257q1.047.554,2.1,1.1a.685.685,0,0,0,.76-.045.672.672,0,0,0,.287-.692c-.124-.76-.253-1.519-.393-2.275a2,2,0,0,1,.436-1.778c.164-.187.351-.353.529-.527q.655-.639,1.312-1.277a.7.7,0,0,0,.206-.747.677.677,0,0,0-.593-.494c-.718-.105-1.435-.23-2.156-.311a2.116,2.116,0,0,1-1.827-1.285c-.3-.659-.636-1.305-.963-1.953a.921.921,0,0,0-.227-.3.722.722,0,0,0-1.118.276c-.354.711-.7,1.424-1.056,2.136a1.865,1.865,0,0,1-1.176,1.007,5.853,5.853,0,0,1-.775.142c-.665.1-1.331.192-2,.3a.694.694,0,0,0-.576.679.741.741,0,0,0,.254.568q.845.822,1.687,1.647a1.9,1.9,0,0,1,.6,1.67c-.1.7-.235,1.4-.354,2.1a4.348,4.348,0,0,0-.073.476.7.7,0,0,0,1.043.682c.707-.362,1.408-.735,2.111-1.105A1.946,1.946,0,0,1-475.506,34.188Z" transform="translate(482.994 -22.431)" fill="#4f46fb"/>
  </g>
</svg>
