<svg xmlns="http://www.w3.org/2000/svg" width="18.424" height="20" viewBox="0 0 18.424 20">
  <g id="Group_28" data-name="Group 28" transform="translate(473.303 -35.877)">
    <path id="Path_35" data-name="Path 35" d="M-336.787,51.54q0-1.261,0-2.522a.711.711,0,0,1,.846-.778.676.676,0,0,1,.558.561,4.176,4.176,0,0,1,.028.534q.017,2.232.03,4.464,0,.1,0,.2a.414.414,0,0,0,.313.433.412.412,0,0,0,.474-.205q.925-1.3,1.852-2.595,2.222-3.112,4.445-6.222a.489.489,0,0,0,.1-.534c-.1-.211-.291-.231-.491-.231-1.391,0-2.783,0-4.174,0a1.8,1.8,0,0,1-1.838-1.327,1.984,1.984,0,0,1-.07-.5q-.028-2.488-.044-4.977c0-.3-.08-.437-.3-.507-.247-.079-.39.059-.519.241q-1.071,1.509-2.146,3.015a.8.8,0,0,1-.523.383.68.68,0,0,1-.732-.315.684.684,0,0,1,.032-.814q.749-1.054,1.5-2.106c.272-.381.537-.768.819-1.141a1.806,1.806,0,0,1,2.035-.617,1.819,1.819,0,0,1,1.257,1.717q.024,2.455.042,4.91c0,.522.1.617.63.617,1.347,0,2.693,0,4.04,0a1.823,1.823,0,0,1,1.908,1.447,1.793,1.793,0,0,1-.314,1.5q-1.829,2.557-3.653,5.116-1.36,1.905-2.723,3.808a1.791,1.791,0,0,1-1.587.785,1.778,1.778,0,0,1-1.732-1.637c-.04-.9-.009-1.8-.009-2.7Z" transform="translate(-128.217)" fill="#0050af"/>
    <path id="Path_36" data-name="Path 36" d="M-469.94,179.905h2.522a.724.724,0,0,1,.812.719.721.721,0,0,1-.8.708q-2.567,0-5.133,0a.7.7,0,0,1-.725-.618.7.7,0,0,1,.537-.787,1.023,1.023,0,0,1,.243-.02Q-471.212,179.9-469.94,179.905Z" transform="translate(-0.032 -137.598)" fill="#0050af"/>
    <path id="Path_37" data-name="Path 37" d="M-429.97,245.327h-2.544a.715.715,0,0,1-.789-.717.712.712,0,0,1,.8-.71q2.567,0,5.133,0a.721.721,0,0,1,.734.616.716.716,0,0,1-.541.789,1.007,1.007,0,0,1-.243.021Q-428.7,245.328-429.97,245.327Z" transform="translate(-38.214 -198.736)" fill="#0050af"/>
    <path id="Path_38" data-name="Path 38" d="M-469.985,309.328q-1.272,0-2.544,0a.712.712,0,0,1-.774-.71.707.707,0,0,1,.766-.716q2.567,0,5.133,0a.716.716,0,0,1,.765.721.715.715,0,0,1-.758.705C-468.259,309.329-469.122,309.328-469.985,309.328Z" transform="translate(0 -259.879)" fill="#0050af"/>
  </g>
</svg>
