<svg xmlns="http://www.w3.org/2000/svg" width="10.1" height="12" viewBox="0 0 10.1 12">
  <g id="Group_34" data-name="Group 34" transform="translate(491.095 -43.006)">
    <path id="Path_757" data-name="Path 757" d="M-459.992,174.656c0-1.062,0-2.125,0-3.187a.712.712,0,0,1,.07-.3.433.433,0,0,1,.473-.225.474.474,0,0,1,.375.437c0,.115,0,.231,0,.346q0,3.021,0,6.042a.49.49,0,0,0,.549.551h5.365a.494.494,0,0,0,.548-.554q0-3.129,0-6.259a.921.921,0,0,1,.012-.2.463.463,0,0,1,.467-.37.488.488,0,0,1,.44.441,1.249,1.249,0,0,1,0,.13q0,3.129,0,6.259a1.424,1.424,0,0,1-1.469,1.476q-2.7,0-5.408,0a1.418,1.418,0,0,1-1.43-1.439Q-459.993,176.227-459.992,174.656Z" transform="translate(-30.206 -124.235)" fill="#939ea7"/>
    <path id="Path_758" data-name="Path 758" d="M-483.737,44.852h2.269a.45.45,0,0,1,.473.482.425.425,0,0,1-.464.439h-9.158a.456.456,0,0,1-.473-.411.426.426,0,0,1,.445-.509c.707,0,1.413,0,2.12,0h.167c0-.056.007-.1.007-.149,0-.4,0-.808,0-1.211a.462.462,0,0,1,.49-.486q1.817,0,3.634,0a.463.463,0,0,1,.489.489C-483.735,43.941-483.737,44.388-483.737,44.852Zm-3.686-.01h2.752v-.906h-2.752Z" fill="#939ea7"/>
    <path id="Path_759" data-name="Path 759" d="M-362.945,205.326c0,.6,0,1.2,0,1.8a.439.439,0,0,1-.5.474.438.438,0,0,1-.418-.476c-.005-.269,0-.538,0-.807q0-1.391,0-2.781a.472.472,0,0,1,.451-.527.45.45,0,0,1,.469.457C-362.943,204.087-362.946,204.706-362.945,205.326Z" transform="translate(-123.556 -155.388)" fill="#939ea7"/>
    <path id="Path_760" data-name="Path 760" d="M-299.205,205.284c0,.6,0,1.191,0,1.787a.454.454,0,0,1-.509.5.42.42,0,0,1-.408-.389s0-.01,0-.014c0-1.258,0-2.517,0-3.775a.444.444,0,0,1,.409-.412.455.455,0,0,1,.484.344.964.964,0,0,1,.021.214C-299.2,204.122-299.205,204.7-299.205,205.284Z" transform="translate(-185.462 -155.361)" fill="#939ea7"/>
  </g>
</svg>
