<svg xmlns="http://www.w3.org/2000/svg" width="23.065" height="20" viewBox="0 0 23.065 20">
  <g id="Group_5" data-name="Group 5" transform="translate(519.982 -166.932)">
    <path id="Path_4" data-name="Path 4" d="M-508.455,183.612h-10.609a.81.81,0,0,1-.893-.624,1.329,1.329,0,0,1-.024-.312q0-7.388,0-14.776a.844.844,0,0,1,.962-.966H-500.1c.758,0,1.517,0,2.275,0a.83.83,0,0,1,.906.91q0,7.422,0,14.844a.821.821,0,0,1-.929.925Zm0-3.707h9.885c.407,0,.492-.082.492-.481q0-5.4,0-10.809c0-.371-.1-.467-.463-.467h-19.568c-.505,0-.716.205-.716.7q0,5.292,0,10.584c0,.373.1.468.462.468Zm.511,2.217a.508.508,0,0,0-.521-.5.512.512,0,0,0-.49.514.51.51,0,0,0,.511.516A.509.509,0,0,0-507.944,182.122Z" fill="#fff"/>
    <path id="Path_5" data-name="Path 5" d="M-411.508,560.038h4.513c0,.14,0,.272,0,.4a.626.626,0,0,0,.675.673c.7,0,1.4,0,2.095,0a2.447,2.447,0,0,1,1.654.6c.13.113.22.237.151.409a.362.362,0,0,1-.389.205c-.878,0-1.757,0-2.635,0q-5.09,0-10.18,0a.738.738,0,0,1-.326-.054c-.2-.1-.2-.352-.012-.525a2.374,2.374,0,0,1,1.619-.625c.706-.01,1.411,0,2.117,0a.639.639,0,0,0,.718-.721C-411.507,560.283-411.508,560.172-411.508,560.038Z" transform="translate(-99.199 -375.396)" fill="#fff"/>
    <path id="Path_6" data-name="Path 6" d="M-464.493,230.718c0-.132-.053-.312.012-.386a1.444,1.444,0,0,1,.441-.247c.053-.027.111-.045.165-.07a.317.317,0,0,1,.453.117,1.278,1.278,0,0,0,2.053-.019c.108-.142.209-.2.375-.116.094.046.2.07.294.111.378.161.378.162.364.571a1.308,1.308,0,0,0,1.522,1.334c.162-.027.239.015.294.153.03.076.073.148.105.223.2.452.2.452-.147.8a1.282,1.282,0,0,0,.135,1.938.294.294,0,0,1,.118.414c-.081.177-.155.357-.231.536a.2.2,0,0,1-.251.124,1.3,1.3,0,0,0-1.526,1.522.327.327,0,0,1-.123.242,1.291,1.291,0,0,1-.322.154c-.4.168-.4.167-.7-.146a1.29,1.29,0,0,0-1.986.131c-.108.143-.2.178-.357.107-.068-.031-.143-.046-.211-.077-.15-.068-.343-.107-.431-.224-.074-.1-.03-.291-.03-.442a1.3,1.3,0,0,0-1.53-1.271c-.135.025-.217,0-.268-.128a6.564,6.564,0,0,1-.25-.624.3.3,0,0,1,.085-.259,1.315,1.315,0,0,0,0-2.169.348.348,0,0,1-.089-.258,1,1,0,0,1,.1-.294c.177-.439.178-.439.636-.438A1.272,1.272,0,0,0-464.493,230.718Zm4.07,3.393a1.975,1.975,0,0,0-1.974-1.995,1.987,1.987,0,0,0-1.995,1.978,1.978,1.978,0,0,0,1.978,1.991A1.969,1.969,0,0,0-460.424,234.111Z" transform="translate(-51.041 -60.186)" fill="#fff"/>
    <path id="Path_7" data-name="Path 7" d="M-252.216,311.055h-3.466c-.364,0-.39-.027-.39-.4,0-.135,0-.27,0-.405,0-.191.094-.272.277-.271h7.022c.368,0,.407.039.407.416,0,.1,0,.2,0,.293,0,.315-.052.368-.361.368Z" transform="translate(-252.02 -136.602)" fill="#fff"/>
    <path id="Path_8" data-name="Path 8" d="M-252.219,259.543h-3.446c-.391,0-.4-.008-.4-.409,0-.105,0-.21,0-.315,0-.3.04-.338.341-.338q2.376,0,4.753,0h2.253c.32,0,.359.042.359.368q0,.169,0,.338c0,.322-.036.356-.367.356Z" transform="translate(-252.025 -87.423)" fill="#fff"/>
    <path id="Path_9" data-name="Path 9" d="M-253.568,361.8q1.1,0,2.207,0c.238,0,.306.067.312.305,0,.158,0,.315,0,.473a.254.254,0,0,1-.287.293h-4.482a.237.237,0,0,1-.271-.278c.005-.15,0-.3,0-.45,0-.307.033-.341.333-.342Z" transform="translate(-252.005 -186.091)" fill="#fff"/>
  </g>
</svg>
