<svg xmlns="http://www.w3.org/2000/svg" width="20" height="20" viewBox="0 0 20 20">
    <g transform="translate(538.943 -14.946)">
        <path d="M-528.942,14.946a10.021,10.021,0,0,1,10,10,10.011,10.011,0,0,1-10.013 10,10.01,10.01,0,0,1-9.987-10.008A10.008,10.008,0,0,1-528.942 14.946Zm-.01,1.665a8.33,8.33,0,0,0-8.325 8.353,8.33,8.33,0,0,0,8.342 8.317,8.336,8.336,0,0,0,8.327-8.336A8.327,8.327,0,0,0-528.952 16.611Z" fill="#28a745"/>
        <path d="M-407.345 191.429a1.835,1.835,0,0,1,.151-.2q2.5-2.508 5.011-5.013a.83.83,0,0,1,1.317.06.825.825,0,0,1-.049 1.012c-.047.054-.1.1-.149.154l-5.606 5.606a.855.855,0,0,1-1.4 0q-1.167-1.167-2.333-2.334a.827.827,0,0,1-.108-1.143.822.822,0,0,1,1.253-.056c.351.34.692.689 1.037 1.034C-407.939 190.83-407.66 191.111-407.345 191.429Z" transform="translate(-123.242 -164.293)" fill="#28a745" />
    </g>
</svg> 