<svg xmlns="http://www.w3.org/2000/svg" width="19.952" height="20" viewBox="0 0 19.952 20">
  <g id="Group_148" data-name="Group 148" transform="translate(-460.732 30.392)">
    <path id="Path_5175" data-name="Path 5175" d="M616.4,140.1c1.138,0,2.276-.006,3.414,0a2.989,2.989,0,0,1,2.993,2.308,2.2,2.2,0,0,1,.07.507c.007,1.418.027,2.837,0,4.255a2.925,2.925,0,0,1-2.433,2.851,7.587,7.587,0,0,1-1.095.062c-.324.011-.429.107-.454.429a1.61,1.61,0,0,1-1.049,1.474,1.582,1.582,0,0,1-1.775-.34c-.415-.389-.813-.8-1.21-1.2a1.162,1.162,0,0,0-.877-.363,9.967,9.967,0,0,1-1.609-.061,2.942,2.942,0,0,1-2.453-2.909c-.013-1.3,0-2.6,0-3.9a3,3,0,0,1,3.089-3.106C614.144,140.091,615.274,140.1,616.4,140.1Zm.552,9.65c.051-.033.06-.035.063-.04.022-.05.042-.1.063-.151a2.254,2.254,0,0,1,1.639-1.4,6.1,6.1,0,0,1,1.138-.072.993.993,0,0,0,1.039-1q.02-2,0-4a.968.968,0,0,0-.982-.984q-3.507-.009-7.015,0a.959.959,0,0,0-.972.964q-.015,2.023,0,4.045a.971.971,0,0,0,.99.973c.319.006.639.01.959,0a3.109,3.109,0,0,1,2.483,1.034C616.559,149.33,616.762,149.542,616.956,149.746Z" transform="translate(-142.209 -162.512)" fill="#ff6692"/>
    <path id="Path_5176" data-name="Path 5176" d="M467.231-30.384c1.208,0,2.417-.022,3.624.005a2.944,2.944,0,0,1,2.837,2.84c.028,1.051.014,2.1.006,3.157a.986.986,0,0,1-.926.97.99.99,0,0,1-1.048-.835,1.975,1.975,0,0,1-.022-.326c0-.912,0-1.824,0-2.736a1,1,0,0,0-1.087-1.094q-3.4,0-6.8,0a1,1,0,0,0-1.087,1.077q-.006,1.917,0,3.835a.981.981,0,0,0,1.014,1.071,2.96,2.96,0,0,1,2.91,2.431,8.1,8.1,0,0,1,.051,1.677.958.958,0,0,1-1.044.886,1,1,0,0,1-.933-1.013c0-.312,0-.624,0-.935a1,1,0,0,0-1.021-1.044,2.985,2.985,0,0,1-2.933-2.547,1.505,1.505,0,0,1-.024-.255c0-1.45-.024-2.9,0-4.349a2.929,2.929,0,0,1,2.813-2.81C464.783-30.405,466.007-30.384,467.231-30.384Z" transform="translate(0 0)" fill="#ff6692"/>
  </g>
</svg>
