<svg xmlns="http://www.w3.org/2000/svg" width="24.956" height="25" viewBox="0 0 24.956 25">
  <g id="Group_8" data-name="Group 8" transform="translate(597.819 -130.739)">
    <path id="Path_12" data-name="Path 12" d="M-484.134,240.466c0-.245.02-.539,0-.829a.768.768,0,0,1,.764-.831,8.511,8.511,0,0,1,.9,0,.736.736,0,0,1,.734.775c0,.252.011.5.007.756,0,.133.043.183.179.232.509.184,1.01.389,1.506.606.127.056.195.061.289-.043.174-.193.359-.377.544-.56a.71.71,0,0,1,1.009-.066,6.175,6.175,0,0,1,.736.71.728.728,0,0,1-.045,1.049c-.181.187-.368.369-.54.563a.239.239,0,0,0-.053.2c.254.565.519,1.125.8,1.719.231,0,.525.02.815,0a.769.769,0,0,1,.844.775,8.308,8.308,0,0,1,0,.9.736.736,0,0,1-.764.722c-.26,0-.52.008-.781.007-.123,0-.171.045-.217.169-.19.515-.4,1.024-.616,1.528-.052.119-.051.183.043.269.192.175.376.36.56.544a.73.73,0,0,1,.064,1.03,6.407,6.407,0,0,1-.695.717.732.732,0,0,1-1.067-.049c-.187-.181-.368-.368-.563-.54a.233.233,0,0,0-.2-.036c-.559.251-1.113.513-1.707.789,0,.23-.02.532,0,.83a.767.767,0,0,1-.765.83,8.11,8.11,0,0,1-.9,0,.74.74,0,0,1-.734-.777c0-.26.005-.521-.015-.78a.283.283,0,0,0-.152-.191q-.769-.326-1.55-.624a.279.279,0,0,0-.239.036c-.193.173-.367.369-.551.552a.733.733,0,0,1-1.067.053,7.348,7.348,0,0,1-.666-.644.741.741,0,0,1,.035-1.105c.176-.181.358-.356.522-.547a.255.255,0,0,0,.04-.221c-.246-.553-.5-1.1-.782-1.7-.221,0-.521-.02-.818,0a.77.77,0,0,1-.843-.777,8.827,8.827,0,0,1,0-.9.738.738,0,0,1,.764-.721c.26,0,.52-.008.781-.006.123,0,.171-.044.217-.169.19-.515.4-1.024.616-1.528.051-.118.055-.182-.041-.269-.193-.175-.375-.36-.559-.544a.728.728,0,0,1-.066-1.029,6.529,6.529,0,0,1,.694-.718.731.731,0,0,1,1.067.049c.187.181.369.368.564.539a.233.233,0,0,0,.2.038C-485.283,241-484.728,240.742-484.134,240.466Zm7.7,5.919v-.851h-1.591a5.789,5.789,0,0,0-1.191-2.742l1.129-1.04-.583-.607-1.116,1.092c-.106-.065-.218-.13-.326-.2a5.223,5.223,0,0,0-1.877-.773c-.5-.1-.5-.11-.512-.641-.005-.346,0-.691,0-1.029h-.845v1.593a5.728,5.728,0,0,0-2.746,1.19l-1.036-1.131-.606.584,1.089,1.119c-.075.123-.152.256-.236.384a5.117,5.117,0,0,0-.765,1.957c-.063.361-.067.363-.442.366-.4,0-.8,0-1.2,0v.848h1.545a14.383,14.383,0,0,0,.447,1.405c.193.45.468.866.746,1.368l-1.076,1.008.572.6,1.118-1.086c.1.059.2.118.3.185a5.282,5.282,0,0,0,1.92.8c.482.1.483.106.49.608.005.354,0,.708,0,1.055h.843V250.9a14.4,14.4,0,0,0,1.405-.447c.451-.193.867-.467,1.366-.743l1.016,1.083.6-.568-1.087-1.131a1.36,1.36,0,0,1,.077-.14,5.527,5.527,0,0,0,.949-2.347c.027-.179.1-.226.266-.223C-477.34,246.389-476.895,246.384-476.438,246.384Z" transform="translate(-102.472 -102.78)" fill="#fff"/>
    <path id="Path_13" data-name="Path 13" d="M-431.727,136.3V133.98c-.149.045-.289.1-.433.13a1.732,1.732,0,0,1-1.209-.159c-.671-.358-1.321-.756-1.975-1.146-.411-.246-.8-.523-1.218-.76a4.259,4.259,0,0,0-2.685-.485,38.687,38.687,0,0,0-5.194,1.144,3.914,3.914,0,0,0-.8.344c-.084.044-.123.174-.182.265a.864.864,0,0,0,.3.113c.723-.028,1.445-.07,2.167-.113.892-.052,1.784-.11,2.677-.161a.408.408,0,0,1,.455.376.387.387,0,0,1-.4.4q-1.533.1-3.066.186c-.633.036-1.266.079-1.9.094a.973.973,0,0,1-.891-.457.9.9,0,0,1,.264-1.233,3.8,3.8,0,0,1,1.151-.55q2.259-.579,4.54-1.073a5.893,5.893,0,0,1,4.933,1.061,23.029,23.029,0,0,0,2.055,1.25,1.288,1.288,0,0,0,1.322-.048.316.316,0,0,0,.135-.178,1.046,1.046,0,0,1,.986-.841c.671-.04,1.346-.01,2.036-.01v5.645h-.5c-.472,0-.943,0-1.415,0a1.078,1.078,0,0,1-.975-.539c-.074-.124-.14-.13-.271-.112-.8.112-1.605.264-2.412.295a3.892,3.892,0,0,1-2.446-.757c-.791-.568-1.578-1.141-2.354-1.731a1.322,1.322,0,0,1-.508-.809.849.849,0,0,1,.834-1.035,3.513,3.513,0,0,1,1.427.366c.545.229,1.081.482,1.618.731a.385.385,0,0,1,.231.518.393.393,0,0,1-.55.192c-.647-.28-1.287-.575-1.938-.846a3.556,3.556,0,0,0-.678-.179c-.189-.037-.234.089-.135.211a3.215,3.215,0,0,0,.562.567c.646.479,1.3.946,1.967,1.4a3.745,3.745,0,0,0,2.772.555q.745-.117,1.49-.238C-431.871,136.342-431.8,136.319-431.727,136.3Zm2.289-3.4c-.4,0-.76-.006-1.125,0a.339.339,0,0,0-.374.359q-.007,1.692,0,3.385a.308.308,0,0,0,.29.335c.4.02.8.006,1.21.006Z" transform="translate(-144.2)" fill="#fff"/>
    <path id="Path_14" data-name="Path 14" d="M-597.819,504.461v-5.642h.876c.293,0,.586.011.878,0a1.187,1.187,0,0,1,1.225.681c.642-.1,1.28-.211,1.922-.293a4.346,4.346,0,0,1,3.125.731c.695.48,1.386.965,2.062,1.471a1.8,1.8,0,0,1,.8,1.093.847.847,0,0,1-.794,1.007,3.78,3.78,0,0,1-1.61-.422c-.493-.207-.975-.439-1.461-.664a.39.39,0,0,1-.249-.53.4.4,0,0,1,.575-.179c.639.278,1.272.569,1.915.837a3.469,3.469,0,0,0,.678.179c.193.037.228-.1.132-.213a3.265,3.265,0,0,0-.563-.566c-.653-.483-1.312-.957-1.987-1.409a3.717,3.717,0,0,0-2.751-.539c-.5.079-.993.157-1.49.238-.07.011-.139.034-.214.053v2.321c.15-.045.29-.1.434-.13a1.732,1.732,0,0,1,1.208.159c.665.353,1.308.746,1.955,1.132.411.246.8.524,1.217.762a4.268,4.268,0,0,0,2.73.492,37.891,37.891,0,0,0,5.309-1.186,3.225,3.225,0,0,0,.7-.327c.07-.039.1-.155.143-.236-.084-.039-.169-.112-.253-.111-.39,0-.78.025-1.169.048q-1.837.108-3.674.222a.429.429,0,0,1-.5-.351c-.027-.228.139-.4.425-.423q1.52-.1,3.042-.184c.625-.036,1.249-.083,1.874-.094a.974.974,0,0,1,.972.567.952.952,0,0,1-.317,1.134,3.275,3.275,0,0,1-1.388.62c-1.474.351-2.945.716-4.43,1.014a5.6,5.6,0,0,1-4.462-.863c-.567-.393-1.141-.779-1.734-1.129a6.635,6.635,0,0,0-1.087-.471c-.347-.128-.645.082-.951.2-.044.017-.073.1-.09.159a1.032,1.032,0,0,1-.963.834C-596.434,504.492-597.117,504.461-597.819,504.461Zm.783-.77c.4,0,.76.006,1.125,0a.339.339,0,0,0,.374-.36q.007-1.693,0-3.385a.308.308,0,0,0-.29-.335c-.4-.02-.8-.006-1.209-.006Z" transform="translate(0 -350.115)" fill="#fff"/>
    <path id="Path_15" data-name="Path 15" d="M-395.788,329.86a2.918,2.918,0,0,1-3.122,2.792,2.935,2.935,0,0,1-2.678-3.064,2.918,2.918,0,0,1,3.134-2.779A2.933,2.933,0,0,1-395.788,329.86Zm-5.021-.048a2.143,2.143,0,0,0,2.259,2.062,2.15,2.15,0,0,0,1.985-2.214,2.142,2.142,0,0,0-2.271-2.073A2.152,2.152,0,0,0-400.81,329.812Z" transform="translate(-186.648 -186.492)" fill="#fff"/>
  </g>
</svg>
