<svg xmlns="http://www.w3.org/2000/svg" width="20" height="24.996" viewBox="0 0 20 24.996">
  <g id="Group_2" data-name="Group 2" transform="translate(447.968 -114.935)">
    <path id="Path_2" data-name="Path 2" d="M-437.963,397.255q-2.89,0-5.781,0a4.158,4.158,0,0,1-4.149-3.394,3.5,3.5,0,0,1-.071-.671c-.007-1.128,0-2.257,0-3.385a.83.83,0,0,1,.413-.762q2.037-1.227,4.078-2.448a.813.813,0,0,1,1.024.135.814.814,0,0,1,.094,1.008,1.311,1.311,0,0,1-.384.34q-1.675,1.023-3.363,2.026a.367.367,0,0,0-.2.371c.008.859,0,1.719,0,2.578a2.5,2.5,0,0,0,2.537,2.54q5.794,0,11.587,0a2.5,2.5,0,0,0,2.546-2.556c0-.851-.005-1.7.005-2.552a.387.387,0,0,0-.218-.39c-1.2-.71-2.395-1.431-3.591-2.149a.815.815,0,0,1-.419-.9.781.781,0,0,1,.693-.643.963.963,0,0,1,.543.115c1.411.831,2.813,1.679,4.217,2.522a.848.848,0,0,1,.433.778c0,1.128.011,2.257,0,3.385a4.146,4.146,0,0,1-3.611,4.007,5.9,5.9,0,0,1-.7.044Q-435.125,397.258-437.963,397.255Z" transform="translate(0 -257.324)" fill="#636363"/>
    <path id="Path_3" data-name="Path 3" d="M-377.308,128.264a6.674,6.674,0,0,1-6.648-6.688,6.673,6.673,0,0,1,6.693-6.641,6.673,6.673,0,0,1,6.635,6.674A6.674,6.674,0,0,1-377.308,128.264Zm.015-1.662a5,5,0,0,0,5-4.988,5,5,0,0,0-5-5.016,5,5,0,0,0-5,4.988A5,5,0,0,0-377.292,126.6Z" transform="translate(-60.679)" fill="#636363"/>
  </g>
</svg>
