<svg xmlns="http://www.w3.org/2000/svg" width="9.994" height="15" viewBox="0 0 9.994 15">
  <g id="Group_18" data-name="Group 18" transform="translate(434.972 -59.753)">
    <path id="Path_28" data-name="Path 28" d="M-428.185,67.249l-1.179-.983q-2.584-2.154-5.167-4.308a1.234,1.234,0,0,1-.17-1.716,1.215,1.215,0,0,1,1.72-.231c.748.594,1.475,1.215,2.209,1.827q2.645,2.2,5.288,4.409a1.25,1.25,0,0,1-.006,2.016l-7.37,6.145a1.223,1.223,0,0,1-1.412.207,1.19,1.19,0,0,1-.7-1.168,1.173,1.173,0,0,1,.439-.9q3.062-2.555,6.128-5.106C-428.335,67.383-428.269,67.323-428.185,67.249Z" transform="translate(0)" fill="#e0deff"/>
  </g>
</svg>
