<svg xmlns="http://www.w3.org/2000/svg" width="25" height="25" viewBox="0 0 25 25">
  <g id="Group_9" data-name="Group 9" transform="translate(509.838 -46.052)">
    <path id="Path_16" data-name="Path 16" d="M-484.838,58.546a12.49,12.49,0,0,1-12.487,12.506,12.491,12.491,0,0,1-12.513-12.509,12.489,12.489,0,0,1,12.5-12.491A12.487,12.487,0,0,1-484.838,58.546Zm-2.449.006A10.072,10.072,0,0,0-497.323,48.5a10.073,10.073,0,0,0-10.067,10.051A10.075,10.075,0,0,0-497.353,68.6,10.074,10.074,0,0,0-487.287,58.552Z" fill="#fff"/>
    <path id="Path_17" data-name="Path 17" d="M-335.4,242.973c.161.036.287.056.407.094a1.226,1.226,0,0,1,.826,1.386,1.173,1.173,0,0,1-1.106.994c-.479.019-.959.021-1.438,0a1.175,1.175,0,0,1-1.135-1.187c-.007-1.145,0-2.29,0-3.435v-.338c-.17-.041-.306-.062-.433-.105a1.224,1.224,0,0,1-.8-1.4,1.209,1.209,0,0,1,1.159-.978c.43-.007.861-.005,1.292,0a1.2,1.2,0,0,1,1.226,1.225c.005,1.125,0,2.251,0,3.376Z" transform="translate(-160.709 -180.673)" fill="#fff"/>
    <path id="Path_18" data-name="Path 18" d="M-315.378,154.031a1.231,1.231,0,0,1-1.234,1.227,1.236,1.236,0,0,1-1.219-1.246,1.2,1.2,0,0,1,1.239-1.21A1.192,1.192,0,0,1-315.378,154.031Z" transform="translate(-180.73 -100.479)" fill="#fff"/>
  </g>
</svg>
