<svg xmlns="http://www.w3.org/2000/svg" width="12.033" height="12" viewBox="0 0 12.033 12">
  <g id="Group_35" data-name="Group 35" transform="translate(545.851 -34.694)">
    <path id="Path_761" data-name="Path 761" d="M-540.427,90.747h-3.711a1.681,1.681,0,0,1-1.026-.309,1.6,1.6,0,0,1-.682-1.351q-.006-3.769,0-7.537a1.6,1.6,0,0,1,1.271-1.609,1.652,1.652,0,0,1,.377-.042q1.868,0,3.737,0a.543.543,0,0,1,.581.539.548.548,0,0,1-.577.547c-.119,0-.237,0-.356,0h-3.33a.547.547,0,0,0-.619.615q0,3.724,0,7.448a.552.552,0,0,0,.611.612c2.487,0,4.974,0,7.461,0a.585.585,0,0,0,.607-.61c-.012-1.22,0-2.44,0-3.661a.582.582,0,0,1,.189-.479.514.514,0,0,1,.58-.086.511.511,0,0,1,.318.493q0,1.919,0,3.839a1.341,1.341,0,0,1-.037.3,1.627,1.627,0,0,1-1.652,1.285C-537.936,90.749-539.181,90.747-540.427,90.747Z" transform="translate(0 -44.054)" fill="#939ea7"/>
    <path id="Path_762" data-name="Path 762" d="M-408.815,36.388a1.689,1.689,0,0,1-.523,1.226q-2.543,2.544-5.085,5.088a.962.962,0,0,1-.486.227c-.639.16-1.281.306-1.915.481a.56.56,0,0,1-.706-.7c.188-.688.346-1.384.528-2.074a.749.749,0,0,1,.183-.324q2.537-2.549,5.085-5.088a1.684,1.684,0,0,1,2.775.49,4.391,4.391,0,0,1,.177.667Zm-7.454,5.761c.386-.1.753-.188,1.118-.283a.229.229,0,0,0,.089-.067q2.481-2.479,4.96-4.96a.609.609,0,0,0,.027-.884.608.608,0,0,0-.884.025q-2.481,2.479-4.96,4.96a.25.25,0,0,0-.07.1C-416.082,41.4-416.172,41.767-416.269,42.149Z" transform="translate(-125.036)" fill="#939ea7"/>
  </g>
</svg>
