<svg xmlns="http://www.w3.org/2000/svg" width="25" height="25" viewBox="0 0 25 25">
  <g id="Group_22" data-name="Group 22" transform="translate(538.943 -14.946)">
    <path id="Path_29" data-name="Path 29" d="M-526.442,14.946a12.526,12.526,0,0,1,12.5,12.5,12.514,12.514,0,0,1-12.517,12.5,12.513,12.513,0,0,1-12.483-12.509A12.511,12.511,0,0,1-526.442,14.946Zm-.013,2.081a10.412,10.412,0,0,0-10.407,10.441,10.413,10.413,0,0,0,10.428,10.4,10.42,10.42,0,0,0,10.409-10.42A10.409,10.409,0,0,0-526.455,17.027Z" transform="translate(0 0)" fill="#fff"/>
    <path id="Path_30" data-name="Path 30" d="M-406.508,192.806a2.3,2.3,0,0,1,.188-.252q3.13-3.135,6.264-6.266a1.037,1.037,0,0,1,1.647.075,1.031,1.031,0,0,1-.062,1.265c-.058.068-.123.13-.187.193l-7.007,7.007a1.068,1.068,0,0,1-1.747,0q-1.458-1.458-2.916-2.917a1.034,1.034,0,0,1-.135-1.429,1.028,1.028,0,0,1,1.566-.07c.438.424.865.861,1.3,1.293C-407.251,192.057-406.9,192.409-406.508,192.806Z" transform="translate(-121.989 -162.623)" fill="#fff"/>
  </g>
</svg>
