<svg xmlns="http://www.w3.org/2000/svg" width="25" height="24.957" viewBox="0 0 25 24.957">
  <g id="Group_3" data-name="Group 3" transform="translate(483.183 -120.211)">
    <path id="Path_1" data-name="Path 1" d="M-467.831,136.674l-1.278-1.271a8.493,8.493,0,0,1-7.335,1.754,8.233,8.233,0,0,1-5.05-3.284,8.549,8.549,0,0,1,1.112-11.426,8.645,8.645,0,0,1,11.19-.352,8.652,8.652,0,0,1,1.232,12.169l1.273,1.272a3.069,3.069,0,0,1,1.582-.369,2.747,2.747,0,0,1,1.873.765c1.432,1.407,2.868,2.812,4.254,4.264a2.75,2.75,0,0,1,.6,2.966,2.846,2.846,0,0,1-2.362,1.963,2.79,2.79,0,0,1-2.5-.787q-2.093-2.044-4.14-4.137a2.94,2.94,0,0,1-.547-3.318Zm.267-7.9a7.029,7.029,0,0,0-7.021-7.016,7.03,7.03,0,0,0-7.029,7.033,7.032,7.032,0,0,0,7.021,7.017A7.031,7.031,0,0,0-467.564,128.772Zm.92,9.383a1.3,1.3,0,0,0,.385.969q2.035,2.048,4.084,4.083a1.4,1.4,0,0,0,1.994-.017,1.418,1.418,0,0,0,.023-2c-.155-.166-.32-.323-.481-.484q-1.775-1.775-3.551-3.548a1.424,1.424,0,0,0-1.591-.33A1.41,1.41,0,0,0-466.644,138.155Z" fill="#636363"/>
  </g>
</svg>
