<svg xmlns="http://www.w3.org/2000/svg" width="17.936" height="18" viewBox="0 0 17.936 18">
  <g id="Group_29" data-name="Group 29" transform="translate(525.018 -47.835)">
    <path id="Path_39" data-name="Path 39" d="M-362.287,53.66c-1.642-.066-3.281-.129-4.919-.2a.924.924,0,0,1-.907-.95q-.008-1.61,0-3.22a.891.891,0,0,1,.924-.917c1.8-.051,3.6-.141,5.4-.146,1.479,0,2.957.09,4.436.148a.923.923,0,0,1,.888.91q.013,1.65,0,3.3a.886.886,0,0,1-.865.874Q-359.811,53.561-362.287,53.66Zm-4.576-1.471a84.872,84.872,0,0,0,9.1,0V49.623a78.513,78.513,0,0,0-9.1.005Z" transform="translate(-150.621 -0.376)"/>
    <path id="Path_40" data-name="Path 40" d="M-362.319,367.032c-1.49-.058-3.009-.114-4.528-.181a2.683,2.683,0,0,1-.742-.113.809.809,0,0,1-.546-.809c-.015-1.107-.01-2.214,0-3.321a.872.872,0,0,1,.818-.854c2.1-.14,4.2-.2,6.3-.149,1.219.027,2.438.1,3.657.14a.925.925,0,0,1,.868.924c.015,1.094.011,2.187,0,3.281a.9.9,0,0,1-.858.888C-359,366.907-360.643,366.968-362.319,367.032Zm-4.571-1.481a78.294,78.294,0,0,0,9.107,0V362.99a85.023,85.023,0,0,0-9.107,0Z" transform="translate(-150.595 -301.197)"/>
    <path id="Path_41" data-name="Path 41" d="M-362.311,210.164c-1.637-.065-3.282-.129-4.927-.2a.922.922,0,0,1-.878-.876q-.019-1.7,0-3.4a.881.881,0,0,1,.824-.807c2.044-.127,4.09-.194,6.137-.151,1.3.027,2.6.1,3.9.156a.9.9,0,0,1,.779.9q.017,1.65,0,3.3a.9.9,0,0,1-.827.875C-358.969,210.034-360.634,210.1-362.311,210.164Zm4.548-4.044a82.072,82.072,0,0,0-9.106.005v2.557a80.563,80.563,0,0,0,9.106,0Z" transform="translate(-150.613 -150.603)"/>
    <path id="Path_42" data-name="Path 42" d="M-519.574,207.492q0,.73,0,1.46a.959.959,0,0,1-.951,1.1,14,14,0,0,1-3.706-.027.914.914,0,0,1-.784-.9q-.005-1.62,0-3.241a.935.935,0,0,1,.865-.951,15.523,15.523,0,0,1,3.509-.038,1.033,1.033,0,0,1,1.051.833,3.361,3.361,0,0,1,.016.578C-519.573,206.705-519.574,207.1-519.574,207.492Zm-4.154,1.325a10.791,10.791,0,0,0,2.861,0v-2.625a10.771,10.771,0,0,0-2.861,0Z" transform="translate(0 -150.701)"/>
    <path id="Path_43" data-name="Path 43" d="M-525.009,364.15q0-.73,0-1.46a.962.962,0,0,1,.965-1.107,14.13,14.13,0,0,1,3.667.027.948.948,0,0,1,.809.926q.007,1.62,0,3.241a.926.926,0,0,1-.831.922,14.2,14.2,0,0,1-3.806,0,.932.932,0,0,1-.8-.9C-525.012,365.243-525.009,364.7-525.009,364.15Zm1.288,1.328a10.369,10.369,0,0,0,2.867,0v-2.625a11.161,11.161,0,0,0-2.867.005Z" transform="translate(-0.007 -301.087)"/>
    <path id="Path_44" data-name="Path 44" d="M-525,50.53c0-.527,0-1.053,0-1.58a1.009,1.009,0,0,1,.9-1,13.947,13.947,0,0,1,3.409-.028,1.963,1.963,0,0,1,.677.205.837.837,0,0,1,.454.789q0,1.59,0,3.18a.889.889,0,0,1-.8.942c-.807.074-1.619.113-2.43.121a9.745,9.745,0,0,1-1.45-.124.886.886,0,0,1-.763-.91C-525,51.6-525,51.063-525,50.53Zm4.154-1.315a10.372,10.372,0,0,0-2.866,0v2.62a10.986,10.986,0,0,0,2.866,0Z" transform="translate(-0.018 0)"/>
  </g>
</svg>
