<svg xmlns="http://www.w3.org/2000/svg" width="15.167" height="15" viewBox="0 0 15.167 15">
  <g id="Group_27" data-name="Group 27" transform="translate(569.813 -22.875)">
    <path id="Path_32" data-name="Path 32" d="M-562.227,22.876h5.457a2.038,2.038,0,0,1,2.078,1.7,2.439,2.439,0,0,1,.044.48q0,4.383,0,8.767a2.221,2.221,0,0,1-1.142,2.043,1.862,1.862,0,0,1-.97.233c-1.018,0-2.036,0-3.053,0a.319.319,0,0,0-.25.106c-.513.52-1.033,1.034-1.545,1.554a.355.355,0,0,1-.289.123c-.226-.009-.454.007-.68-.007a.416.416,0,0,1-.248-.1q-.783-.767-1.549-1.55a.382.382,0,0,0-.3-.123c-1.008,0-2.015,0-3.023,0a1.993,1.993,0,0,1-1.81-1.078,2.259,2.259,0,0,1-.3-1.17q0-4.406,0-8.812A2.065,2.065,0,0,1-568.436,23a2.26,2.26,0,0,1,.723-.119C-565.885,22.872-564.056,22.876-562.227,22.876Zm0,13.2c.048-.046.088-.083.127-.122.377-.378.761-.75,1.129-1.136a1.045,1.045,0,0,1,.819-.338c1.124.011,2.247,0,3.371.007a.407.407,0,0,0,.406-.232,1.059,1.059,0,0,0,.1-.43q.009-4.391,0-8.783c0-.4-.162-.561-.571-.561h-10.839a.45.45,0,0,0-.5.345,1.122,1.122,0,0,0-.016.255q0,4.346,0,8.692c0,.065,0,.131,0,.2a.519.519,0,0,0,.549.514c1.114,0,2.227.007,3.341,0a1.052,1.052,0,0,1,.817.343C-563.075,35.246-562.655,35.653-562.227,36.079Z" fill="#f8aac8"/>
    <path id="Path_33" data-name="Path 33" d="M-458.643,152.483c-1.168,0-2.336,0-3.5,0a.8.8,0,0,1-.834-.79.8.8,0,0,1,.8-.816c.594,0,1.188,0,1.783,0q2.659,0,5.317,0a.793.793,0,0,1,.79.637.773.773,0,0,1-.423.88,1.1,1.1,0,0,1-.436.086C-456.317,152.486-457.48,152.483-458.643,152.483Z" transform="translate(-103.601 -124.128)" fill="#f8aac8"/>
    <path id="Path_34" data-name="Path 34" d="M-460.233,269.629c-.634,0-1.269,0-1.9,0a.815.815,0,0,1-.848-.783.8.8,0,0,1,.811-.833q1.926-.012,3.852,0a.792.792,0,0,1,.814.812.8.8,0,0,1-.837.8C-458.974,269.632-459.6,269.629-460.233,269.629Z" transform="translate(-103.598 -237.719)" fill="#f8aac8"/>
  </g>
</svg>
