<svg xmlns="http://www.w3.org/2000/svg" width="24.771" height="25" viewBox="0 0 24.771 25">
  <g id="Group_7" data-name="Group 7" transform="translate(488.334 -182.988)">
    <path id="Path_10" data-name="Path 10" d="M-400.078,283.75a2.189,2.189,0,0,1,.606-2.137,2.077,2.077,0,0,1,1.555-.6,2.1,2.1,0,0,1,1.693.866,2.193,2.193,0,0,1,.377,1.854h1.2v-.375q0-3.319,0-6.638c0-.622.138-.76.758-.761h1.48a2.224,2.224,0,0,1,.586-2.043,2.078,2.078,0,0,1,1.505-.649,2.119,2.119,0,0,1,1.73.8,2.343,2.343,0,0,1,.452,1.894c.536,0,1.039,0,1.543,0,.527,0,.676.148.677.668s0,1.011,0,1.558a2.246,2.246,0,0,1,2.294.739,2.12,2.12,0,0,1,.48,1.63c-.129,1.256-1.213,1.986-2.759,1.844v3.574a2.251,2.251,0,0,1,2.024.566,2.115,2.115,0,0,1,.67,1.53c.023,1.358-.981,2.163-2.717,2.163,0,.515,0,1.031,0,1.547,0,.472-.169.642-.644.642q-7.56,0-15.121,0c-.476,0-.637-.159-.637-.643q0-3.659,0-7.318c0-.525.168-.7.7-.7C-401.122,283.743-400.617,283.75-400.078,283.75Zm-1.205,1.03v6.587h6.666c0-.129,0-.244,0-.36,0-.529-.008-1.057,0-1.586a.5.5,0,0,1,.822-.451,2.589,2.589,0,0,0,.308.175,1.15,1.15,0,0,0,1.547-.79,1.1,1.1,0,0,0-.449-1.163,1.124,1.124,0,0,0-1.3-.016.587.587,0,0,1-.655.118c-.254-.131-.276-.362-.272-.608s0-.5,0-.744c0-.363,0-.727,0-1.111-.7,0-1.36,0-2.017,0-.373,0-.611-.225-.567-.544a.958.958,0,0,1,.174-.37,1.143,1.143,0,0,0,.035-1.307,1.151,1.151,0,0,0-1.216-.49,1.14,1.14,0,0,0-.895.915,1.15,1.15,0,0,0,.279.96.474.474,0,0,1,.037.6.485.485,0,0,1-.493.2C-399.935,284.756-400.594,284.78-401.283,284.78Zm7.681-7.8v6.744h1.2a2.185,2.185,0,0,1,1.922-2.711,2.125,2.125,0,0,1,1.689.585,2.178,2.178,0,0,1,.624,2.125h1.223c0-.714,0-1.4,0-2.092a.6.6,0,0,1,.272-.612c.25-.14.435,0,.656.107a1.906,1.906,0,0,0,.872.233,1.06,1.06,0,0,0,.958-.913,1.108,1.108,0,0,0-.471-1.1,1.114,1.114,0,0,0-1.33.018c-.215.147-.424.273-.682.126a.638.638,0,0,1-.275-.645c.007-.612,0-1.224,0-1.869-.657,0-1.282.021-1.9-.012a.9.9,0,0,1-.571-.267c-.16-.181-.064-.416.074-.622a1.1,1.1,0,0,0-.17-1.49,1.185,1.185,0,0,0-1.517-.018,1.1,1.1,0,0,0-.2,1.484.622.622,0,0,1,.1.664c-.128.247-.37.264-.617.262C-392.36,276.98-392.963,276.982-393.6,276.982Zm6.653,14.393c0-.612.006-1.2,0-1.793a.633.633,0,0,1,.276-.644.576.576,0,0,1,.658.11,1.068,1.068,0,0,0,.924.159,1.09,1.09,0,0,0,.851-.917,1.032,1.032,0,0,0-.509-1.106,1.1,1.1,0,0,0-1.277.02c-.214.148-.452.256-.647.082a1,1,0,0,1-.261-.573,5.876,5.876,0,0,1-.011-.872v-1c-.67,0-1.284,0-1.9,0-.256,0-.5-.005-.638-.275s-.006-.447.135-.65a1.133,1.133,0,0,0-.2-1.542,1.174,1.174,0,0,0-1.539.048,1.115,1.115,0,0,0-.125,1.5c.157.217.283.453.1.673a.793.793,0,0,1-.519.237c-.642.028-1.286.011-1.941.011v1.113c1.541-.093,2.594.691,2.68,1.96a2.1,2.1,0,0,1-.537,1.609,2.237,2.237,0,0,1-2.153.687v1.166Z" transform="translate(-80.439 -84.43)" fill="#fff"/>
    <path id="Path_11" data-name="Path 11" d="M-485.079,193.1c-1.51.512-2.744.034-3.141-1.218a2.118,2.118,0,0,1,.294-1.939,2.255,2.255,0,0,1,1.738-.926c-.148-.516-.287-1-.423-1.481s-.03-.694.465-.835.994-.276,1.519-.422a2.212,2.212,0,0,1,.022-2.228,2.049,2.049,0,0,1,1.341-.991c1.4-.324,2.47.492,2.753,2.105q.791-.216,1.577-.431a.505.505,0,0,1,.726.408q1.008,3.589,2.008,7.179c.115.412-.013.626-.433.743q-1.1.308-2.211.6c-.5.134-.687.008-.79-.5a1.011,1.011,0,0,0-.711-.845.973.973,0,0,0-1.061.293.993.993,0,0,0-.171,1.059c.175.486.076.7-.419.839-.641.183-1.285.359-1.928.536a.488.488,0,0,1-.688-.379c-.138-.464-.264-.931-.4-1.4A1.822,1.822,0,0,0-485.079,193.1Zm6.047-7.279c-.722.194-1.394.382-2.071.552a.472.472,0,0,1-.612-.53,1.684,1.684,0,0,1,.09-.341,1.121,1.121,0,0,0-.672-1.4,1.123,1.123,0,0,0-1.444.572,1.149,1.149,0,0,0,.383,1.435.816.816,0,0,1,.238.515c.016.241-.186.369-.413.429-.26.069-.52.137-.779.21-.388.11-.774.225-1.17.34.17.61.326,1.18.49,1.748.072.247.129.491-.084.693a.624.624,0,0,1-.668.069,1.1,1.1,0,0,0-1.374.6,1.111,1.111,0,0,0,.413,1.42,1.134,1.134,0,0,0,1.493-.2.6.6,0,0,1,.608-.272c.274.059.367.27.432.509.161.589.327,1.176.5,1.8l1.09-.306a2.077,2.077,0,0,1,1.413-2.3c.944-.32,1.789.082,2.515,1.211l1.4-.388Z" transform="translate(0)" fill="#fff"/>
  </g>
</svg>
